<?xml version="1.0" encoding="utf-8"?>
<svg width="129.00073px" height="125.09538px" viewBox="0 0 129.00073 125.09538" version="1.1" xmlns:xlink="http://www.w3.org/1999/xlink" xmlns="http://www.w3.org/2000/svg">
  <path d="M-2320 328.566C-2320 298.373 -2299.25 273.026 -2271.24 266L-2271.42 282.236C-2290.59 288.727 -2304.38 306.866 -2304.38 328.227C-2304.38 349.211 -2291.07 367.086 -2272.43 373.864L-2272.5 380.708L-2272.61 390.771C-2299.93 383.273 -2320 358.263 -2320 328.566L-2320 328.566ZM-2238.24 266.4L-2238.42 282.899C-2220.22 289.898 -2207.29 307.553 -2207.29 328.227C-2207.29 349.277 -2220.69 367.198 -2239.43 373.927L-2239.61 391.095C-2211.67 384.019 -2191 358.707 -2191 328.566C-2191 298.92 -2211 273.946 -2238.24 266.4L-2238.24 266.4Z" id="Vector" fill="#133946" fill-rule="evenodd" stroke="none" />
</svg>