<?xml version="1.0" encoding="utf-8"?>
<svg width="823.2832px" height="190.46973px" viewBox="0 0 823.2832 190.46973" version="1.1" xmlns:xlink="http://www.w3.org/1999/xlink" xmlns="http://www.w3.org/2000/svg">
  <g id="pen-Search">
    <g id="pen-Search" fill="#133946">
      <path d="M28.374 71.7354L30.2656 80.0293L30.2656 186.104L12.5137 186.104L12.5137 71.7354L28.374 71.7354ZM84.249 96.6172Q85.9951 103.311 85.9951 111.604Q85.9951 119.898 84.0308 127.683Q82.0664 135.468 78.0649 141.434Q74.0635 147.399 68.0249 150.964Q61.9863 154.529 53.8379 154.529Q48.7451 154.529 44.1616 153.365Q39.5781 152.201 36.2314 150.31L36.2314 135.177Q41.0332 140.852 48.0176 140.852Q52.3828 140.852 55.9478 138.669Q59.5127 136.486 62.0591 132.776Q64.6055 129.065 66.0605 123.9Q67.5156 118.734 67.5156 112.914Q67.5156 107.239 66.2061 102.146Q64.8965 97.0537 62.4956 93.125Q60.0947 89.1963 56.6753 86.8682Q53.2559 84.54 48.7451 84.54Q44.9619 84.54 41.8335 86.0679Q38.7051 87.5957 36.2314 90.3604L36.2314 74.9365Q39.5781 73.0449 43.6523 72.0264Q47.7266 71.0078 52.0918 71.0078Q56.8936 71.0078 61.8408 72.3174Q66.7881 73.627 71.0806 76.6826Q75.373 79.7383 78.8652 84.6855Q82.3574 89.6328 84.249 96.6172ZM143.762 71.0078Q151.619 71.7354 157.949 75.2275Q164.278 78.7197 168.789 84.249Q173.3 89.7783 175.701 96.9082Q178.102 104.038 178.102 111.75Q178.102 115.242 177.665 118.734L127.756 118.734L127.756 105.93L161.368 105.93Q161.368 102.146 160.131 98.6543Q158.895 95.1621 156.494 92.1792Q154.093 89.1963 150.892 87.1592Q147.69 85.1221 143.762 84.6855L143.762 71.0078ZM143.18 140.124Q144.78 140.124 147.181 139.76Q149.582 139.396 152.274 138.451Q154.966 137.505 157.658 136.05Q160.35 134.595 162.387 132.558L168.789 142.307Q163.987 148.272 157.585 151.328Q151.183 154.384 141.288 154.384Q133.285 154.384 126.301 151.11Q119.316 147.836 114.369 142.161Q109.422 136.486 106.512 128.92Q103.602 121.354 103.602 112.623Q103.602 104.329 106.293 96.9082Q108.985 89.4873 113.642 83.8853Q118.298 78.2832 124.482 74.791Q130.666 71.2988 137.796 70.8623L137.796 84.8311Q132.412 85.8496 128.92 89.1963Q125.428 92.543 123.463 96.8354Q121.499 101.128 120.699 105.639Q119.898 110.149 119.898 113.351Q119.898 119.025 121.281 123.9Q122.663 128.774 125.573 132.339Q128.483 135.904 132.776 138.014Q137.068 140.124 143.18 140.124ZM217.971 71.7354L219.862 80.0293L219.862 153.802L202.256 153.802L202.256 71.7354L217.971 71.7354ZM263.369 80.7568Q265.843 83.2305 267.225 86.5044Q268.607 89.7783 269.262 93.3433Q269.917 96.9082 270.063 100.546Q270.208 104.184 270.208 107.676L270.208 150.892L270.208 153.802L252.456 153.802L252.456 109.131Q252.456 104.184 252.02 99.6729Q251.583 95.1621 249.982 91.6699Q248.382 88.1777 245.617 86.2134Q242.853 84.249 237.905 84.249Q235.868 84.249 232.449 84.9038Q229.029 85.5586 225.828 87.0137L225.828 75.8096Q229.757 73.7725 234.34 72.3174Q238.924 70.8623 243.289 70.8623Q249.837 70.8623 254.348 73.5542Q258.858 76.2461 263.369 80.7568ZM384.577 63.1504Q383.85 62.8594 382.831 62.1318Q381.813 61.4043 379.921 60.7495Q378.029 60.0947 375.119 59.6582Q372.209 59.2217 367.698 59.5127L367.698 44.8164Q374.101 44.9619 380.721 46.1987Q387.342 47.4355 391.416 50.0547Q390.543 51.9463 389.379 54.2017Q388.215 56.457 387.196 58.4214Q386.178 60.3857 385.45 61.6953Q384.723 63.0049 384.577 63.1504ZM334.377 74.791Q334.377 68.3887 336.56 63.2959Q338.742 58.2031 342.453 54.3472Q346.163 50.4912 351.183 48.2358Q356.203 45.9805 361.732 45.2529L361.732 60.5313Q357.076 62.1318 354.021 66.1333Q350.965 70.1348 350.965 74.209Q350.965 79.8838 354.021 83.376Q357.076 86.8682 361.732 89.4873L361.732 106.075Q356.931 103.747 352.129 101.055Q347.327 98.3633 343.398 94.7256Q339.47 91.0879 336.923 86.2861Q334.377 81.4844 334.377 74.791ZM336.705 134.158Q338.742 135.322 341.871 136.414Q344.999 137.505 348.346 138.451Q351.692 139.396 355.039 139.979Q358.386 140.561 361.296 140.561L361.732 140.561L361.732 154.384L361.441 154.384Q357.949 154.384 354.239 154.02Q350.528 153.656 346.745 152.783Q342.962 151.91 339.542 150.382Q336.123 148.854 333.649 146.672L336.705 134.158ZM367.698 92.3975Q372.5 94.5801 377.52 97.0537Q382.54 99.5273 386.614 103.092Q390.688 106.657 393.308 111.75Q395.927 116.843 395.927 124.409Q395.927 129.647 393.962 134.595Q391.998 139.542 388.433 143.543Q384.868 147.545 379.63 150.31Q374.392 153.074 367.698 153.947L367.698 139.979Q379.63 137.068 379.63 124.118Q379.63 119.025 376.283 115.679Q372.937 112.332 367.698 109.422L367.698 92.3975ZM451.365 71.0078Q459.223 71.7354 465.552 75.2275Q471.882 78.7197 476.393 84.249Q480.903 89.7783 483.304 96.9082Q485.705 104.038 485.705 111.75Q485.705 115.242 485.269 118.734L435.359 118.734L435.359 105.93L468.972 105.93Q468.972 102.146 467.735 98.6543Q466.498 95.1621 464.097 92.1792Q461.696 89.1963 458.495 87.1592Q455.294 85.1221 451.365 84.6855L451.365 71.0078ZM450.783 140.124Q452.384 140.124 454.785 139.76Q457.186 139.396 459.877 138.451Q462.569 137.505 465.261 136.05Q467.953 134.595 469.99 132.558L476.393 142.307Q471.591 148.272 465.188 151.328Q458.786 154.384 448.892 154.384Q440.889 154.384 433.904 151.11Q426.92 147.836 421.973 142.161Q417.025 136.486 414.115 128.92Q411.205 121.354 411.205 112.623Q411.205 104.329 413.897 96.9082Q416.589 89.4873 421.245 83.8853Q425.901 78.2832 432.085 74.791Q438.27 71.2988 445.399 70.8623L445.399 84.8311Q440.016 85.8496 436.523 89.1963Q433.031 92.543 431.067 96.8354Q429.103 101.128 428.302 105.639Q427.502 110.149 427.502 113.351Q427.502 119.025 428.884 123.9Q430.267 128.774 433.177 132.339Q436.087 135.904 440.379 138.014Q444.672 140.124 450.783 140.124ZM524.119 129.065Q524.119 135.613 526.811 138.814Q529.503 142.016 534.596 142.598L534.596 154.384Q534.014 154.529 532.704 154.529Q527.757 154.529 523.173 153.22Q518.59 151.91 515.098 149Q511.605 146.09 509.641 141.288Q507.677 136.486 507.677 129.502Q507.677 122.809 510.514 117.934Q513.352 113.06 517.79 109.931Q522.228 106.803 527.902 105.275Q533.577 103.747 539.397 103.747L545.8 103.747L545.8 114.078L542.599 114.078Q539.688 114.078 536.487 114.66Q533.286 115.242 530.521 116.843Q527.757 118.443 525.938 121.426Q524.119 124.409 524.119 129.065ZM569.372 129.502Q569.372 130.666 569.518 132.921Q569.663 135.177 570.1 137.505Q570.536 139.833 571.482 141.725Q572.428 143.616 574.028 144.198L569.372 153.947Q567.48 153.947 565.371 153.074Q563.261 152.201 561.296 150.601Q559.332 149 557.95 147.036Q556.567 145.071 555.84 142.743Q554.385 146.381 550.092 149.218Q545.8 152.056 540.562 153.365L540.562 142.307Q544.054 141.579 546.891 139.469Q549.729 137.359 551.766 134.449L551.766 103.747Q551.766 96.6172 551.038 92.3975Q550.311 88.1777 548.564 86.2134Q546.818 84.249 544.272 83.7397Q541.726 83.2305 538.233 83.2305Q535.032 83.2305 532.195 84.0308Q529.357 84.8311 526.957 85.9224Q524.556 87.0137 522.737 88.3232Q520.918 89.6328 520.045 90.3604L513.497 80.3203Q514.952 78.7197 517.862 77.0464Q520.772 75.3731 524.556 74.0635Q528.339 72.7539 532.777 71.9536Q537.215 71.1533 542.017 71.1533Q546.382 71.1533 550.529 72.0264Q554.676 72.8994 558.095 74.9365Q561.515 76.9736 564.061 80.3931Q566.607 83.8125 567.626 88.9053Q568.645 93.9981 569.008 99.1636Q569.372 104.329 569.372 109.422L569.372 128.338L569.372 129.502ZM612.879 71.7354L614.771 80.1748L614.771 124.7L614.771 124.991L614.771 153.802L597.164 153.802L597.164 71.7354L612.879 71.7354ZM620.736 75.373Q624.374 73.3359 629.467 72.2446Q634.56 71.1533 643.29 71.1533L643.29 89.4873Q639.216 88.3232 633.396 88.1777Q630.194 88.1777 626.92 88.687Q623.646 89.1963 620.736 90.2148L620.736 75.373ZM716.626 92.9795Q714.443 90.3604 710.587 88.105Q706.731 85.8496 700.329 85.4131L700.329 71.4443Q708.332 71.8809 714.08 74.8638Q719.827 77.8467 724.483 83.5215L716.626 92.9795ZM700.329 139.979Q705.567 139.396 709.278 137.432Q712.988 135.468 716.335 132.849L722.883 142.307Q718.372 147.981 713.134 150.964Q707.896 153.947 700.329 154.384L700.329 139.979ZM659.732 112.769Q659.732 104.475 662.133 97.1992Q664.534 89.9238 669.19 84.3945Q673.847 78.8652 680.176 75.4458Q686.506 72.0264 694.363 71.4443L694.363 85.5586Q687.088 87.1592 682.723 94.5073Q678.357 101.855 678.357 112.332Q678.357 117.716 679.449 122.445Q680.54 127.174 682.577 130.812Q684.614 134.449 687.597 136.923Q690.58 139.396 694.363 139.979L694.363 154.384Q686.36 153.947 679.958 150.528Q673.556 147.108 669.045 141.506Q664.534 135.904 662.133 128.483Q659.732 121.063 659.732 112.769ZM747.183 40.7422L764.789 40.7422L764.789 153.802L747.183 153.802L747.183 40.7422ZM808.296 80.7568Q810.77 83.2305 812.152 86.5044Q813.534 89.7783 814.189 93.3433Q814.844 96.9082 814.989 100.546Q815.135 104.184 815.135 107.676L815.135 150.892L815.135 153.802L797.383 153.802L797.383 109.131Q797.383 104.184 796.946 99.6729Q796.51 95.1621 794.909 91.6699Q793.309 88.1777 790.544 86.2134Q787.779 84.249 782.832 84.249Q780.795 84.249 777.375 84.9038Q773.956 85.5586 770.755 87.0137L770.755 75.8096Q774.684 73.7725 779.267 72.3174Q783.851 70.8623 788.216 70.8623Q794.764 70.8623 799.274 73.5542Q803.785 76.2461 808.296 80.7568Z" />
    </g>
  </g>
</svg>