<?xml version="1.0" encoding="utf-8"?>
<svg width="89.375px" height="84.5px" viewBox="0 0 89.375 84.5" version="1.1" xmlns:xlink="http://www.w3.org/1999/xlink" xmlns="http://www.w3.org/2000/svg">
  <path d="M66.625 9.81348L66.625 0L89.375 16.25L66.625 32.5L66.625 22.7817C61.3174 23.0219 56.6392 25.3182 52.3999 29.5325C47.7378 34.1442 43.8535 40.4125 39.7646 46.8362C37.7095 50.0618 35.5879 53.3678 33.1699 56.6243C30.7451 59.8694 28.0234 63.104 24.6353 65.9331C21.27 68.7476 17.1426 71.12 12.6318 72.2332C10.3911 72.8019 8.09668 73.0814 5.84961 73.1123L2.8501 73.106C1.90137 73.0978 0.949219 73.0941 0 73.125L0 63.375C0.949219 63.4059 1.90137 63.4022 2.8501 63.3909C3.13525 63.3863 3.43799 63.3852 3.74072 63.384C4.40527 63.3816 5.06934 63.3792 5.54492 63.3401C7.09326 63.2572 8.58691 63.0088 10.0137 62.5879C12.8687 61.7592 15.4531 60.1686 17.8306 58.0366C22.2725 54.0098 25.8213 48.2637 29.3579 42.2595C25.8281 36.2443 22.2832 30.4853 17.8271 26.4539C15.4551 24.3251 12.8701 22.7345 10.0103 21.9058C8.59668 21.4995 7.10156 21.238 5.5415 21.1567C5.08887 21.1244 4.44922 21.1212 3.80469 21.1179C3.47803 21.1163 3.1499 21.1146 2.84375 21.1091C1.90137 21.0929 0.942383 21.0925 0 21.125L0 11.375C0.942383 11.4075 1.90137 11.4071 2.84375 11.3909L5.84961 11.3909C8.0918 11.4071 10.3828 11.7013 12.6255 12.27C17.1431 13.375 21.2715 15.7461 24.6353 18.5574C28.0313 21.4011 30.7451 24.6356 33.1665 27.8694C34.0781 29.0981 34.9409 30.3297 35.7783 31.5605C38.0459 28.0006 40.5669 24.4494 43.6943 21.071C46.6563 17.9169 50.2715 14.9637 54.5547 12.9048C58.3203 11.0643 62.5273 10.0631 66.625 9.81348L66.625 9.81348ZM40.0566 59.0999C41.7471 56.0123 43.8262 52.1945 46.4585 47.8232C48.3438 50.4557 50.2939 52.8776 52.4063 54.9739C56.6416 59.1799 61.3125 61.4744 66.625 61.7183L66.625 52L89.375 68.25L66.625 84.5L66.625 74.6897C62.5278 74.4439 58.3247 73.4346 54.5518 71.5984C50.2778 69.5347 46.6548 66.5751 43.6973 63.4226C42.3809 62.0089 41.1782 60.5624 40.0566 59.0999L40.0566 59.0999Z" id="Vector-Copy" fill="#FFFFFF" fill-rule="evenodd" stroke="none" />
</svg>