<?xml version="1.0" encoding="utf-8"?>
<svg width="87.80762px" height="89.86749px" viewBox="0 0 87.80762 89.86749" version="1.1" xmlns:xlink="http://www.w3.org/1999/xlink" xmlns="http://www.w3.org/2000/svg">
  <path d="M35.02 0C41.3398 0 47.2656 1.66858 52.3809 4.58984L47.4146 11.2577C43.7119 9.3291 39.4971 8.23999 35.02 8.23999C20.1895 8.23999 8.24023 20.1896 8.24023 35.02C8.24023 42.2984 11.1182 48.8829 15.8027 53.7016L10.8389 60.366C4.15869 53.9912 0 44.9971 0 35.02C0 15.6592 15.6592 0 35.02 0L35.02 0ZM60.9639 11.4812L55.9243 18.2473C59.603 22.832 61.7998 28.6612 61.7998 35.02C61.7998 49.8504 49.8506 61.8 35.02 61.8C31.4507 61.8 28.0483 61.1078 24.939 59.8499L19.8955 66.622C24.4722 68.8133 29.6011 70.04 35.02 70.04C41.9321 70.04 48.3296 68.0122 53.7529 64.5681L79.0527 89.8675L87.8076 81.1125L62.8301 56.1994C67.3203 50.3091 70.04 43.0106 70.04 35.02C70.04 25.9523 66.605 17.6965 60.9639 11.4812L60.9639 11.4812Z" id="Vector" fill="#FFFFFF" fill-rule="evenodd" stroke="none" />
</svg>